name E:\Dropbox\SEL\BOX\Experiment\240124_SUB1_PJH\c3d\XYZ\UpDown_TrcMot\15_10_trial1_D1_ExtLoadAPP3.mot
datacolumns 37
datarows 10
range 8.25 8.259
endheader

time	    ground_force1_vx	    ground_force1_vy	    ground_force1_vz	    ground_force1_px	    ground_force1_py	    ground_force1_pz	    ground_torque1_x	    ground_torque1_y	    ground_torque1_z	    ground_force2_vx	    ground_force2_vy	    ground_force2_vz	    ground_force2_px	    ground_force2_py	    ground_force2_pz	    ground_torque2_x	    ground_torque2_y	    ground_torque2_z	      hand_force3_vx	      hand_force3_vy	      hand_force3_vz	      hand_force3_px	      hand_force3_py	      hand_force3_pz	      hand_torque3_x	      hand_torque3_y	      hand_torque3_z	      hand_force4_vx	      hand_force4_vy	      hand_force4_vz	      hand_force4_px	      hand_force4_py	      hand_force4_pz	      hand_torque4_x	      hand_torque4_y	      hand_torque4_z	
8.25	         32.79450033	        360.13919348	         19.68553522	          0.22182855	          0.00000000	          0.17208653	          0.00000000	          0.08546136	          0.00000000	        -36.60745234	        403.98737179	         15.33140923	          0.57862422	          0.00000000	          0.18096808	          0.00000000	          0.20945014	          0.00000000	          0.00000000	          0.00000000	          0.00000000	          0.15447935	          0.96608014	         -0.39169301	          0.00000000	          0.00000000	          0.00000000	          0.00000000	          0.00000000	          0.00000000	          0.65113555	          0.98396431	         -0.38109578	          0.00000000	          0.00000000	          0.00000000	
8.251	         32.77854683	        360.45580150	         19.67435626	          0.22184571	          0.00000000	          0.17206762	          0.00000000	          0.08994872	          0.00000000	        -36.63114152	        404.60313723	         15.41624771	          0.57860832	          0.00000000	          0.18091722	          0.00000000	          0.20405011	          0.00000000	          0.00000000	          0.00000000	          0.00000000	          0.15449036	          0.96599808	         -0.39172454	          0.00000000	          0.00000000	          0.00000000	          0.00000000	          0.00000000	          0.00000000	          0.65111359	          0.98384028	         -0.38117219	          0.00000000	          0.00000000	          0.00000000	
8.252	         32.76409702	        360.77614123	         19.66188013	          0.22186257	          0.00000000	          0.17204868	          0.00000000	          0.09461477	          0.00000000	        -36.65568356	        405.22876531	         15.50016108	          0.57859247	          0.00000000	          0.18086724	          0.00000000	          0.19863248	          0.00000000	          0.00000000	          0.00000000	          0.00000000	          0.15449885	          0.96591841	         -0.39175377	          0.00000000	          0.00000000	          0.00000000	          0.00000000	          0.00000000	          0.00000000	          0.65109337	          0.98372006	         -0.38124642	          0.00000000	          0.00000000	          0.00000000	
8.253	         32.75115996	        361.10015606	         19.64812085	          0.22187915	          0.00000000	          0.17202969	          0.00000000	          0.09946268	          0.00000000	        -36.68098684	        405.86407080	         15.58308314	          0.57857663	          0.00000000	          0.18081810	          0.00000000	          0.19320631	          0.00000000	          0.00000000	          0.00000000	          0.00000000	          0.15450484	          0.96584113	         -0.39178070	          0.00000000	          0.00000000	          0.00000000	          0.00000000	          0.00000000	          0.00000000	          0.65107492	          0.98360373	         -0.38131842	          0.00000000	          0.00000000	          0.00000000	
8.254	         32.73974129	        361.42778486	         19.63309124	          0.22189544	          0.00000000	          0.17201062	          0.00000000	          0.10449522	          0.00000000	        -36.70695805	        406.50885429	         15.66494885	          0.57856080	          0.00000000	          0.18076978	          0.00000000	          0.18778063	          0.00000000	          0.00000000	          0.00000000	          0.00000000	          0.15450838	          0.96576627	         -0.39180530	          0.00000000	          0.00000000	          0.00000000	          0.00000000	          0.00000000	          0.00000000	          0.65105823	          0.98349138	         -0.38138812	          0.00000000	          0.00000000	          0.00000000	
8.255	         32.72984311	        361.75896173	         19.61680271	          0.22191144	          0.00000000	          0.17199145	          0.00000000	          0.10971461	          0.00000000	        -36.73350236	        407.16290222	         15.74569441	          0.57854496	          0.00000000	          0.18072224	          0.00000000	          0.18236440	          0.00000000	          0.00000000	          0.00000000	          0.00000000	          0.15450949	          0.96569386	         -0.39182757	          0.00000000	          0.00000000	          0.00000000	          0.00000000	          0.00000000	          0.00000000	          0.65104332	          0.98338307	         -0.38145547	          0.00000000	          0.00000000	          0.00000000	
8.256	         32.72146382	        362.09361576	         19.59926510	          0.22192716	          0.00000000	          0.17197215	          0.00000000	          0.11512261	          0.00000000	        -36.76052374	        407.82598702	         15.82525740	          0.57852908	          0.00000000	          0.18067545	          0.00000000	          0.17696646	          0.00000000	          0.00000000	          0.00000000	          0.00000000	          0.15450820	          0.96562392	         -0.39184750	          0.00000000	          0.00000000	          0.00000000	          0.00000000	          0.00000000	          0.00000000	          0.65103019	          0.98327887	         -0.38152040	          0.00000000	          0.00000000	          0.00000000	
8.257	         32.71459803	        362.43167084	         19.58048642	          0.22194259	          0.00000000	          0.17195270	          0.00000000	          0.12072041	          0.00000000	        -36.78792525	        408.49786719	         15.90357691	          0.57851314	          0.00000000	          0.18062939	          0.00000000	          0.17159551	          0.00000000	          0.00000000	          0.00000000	          0.00000000	          0.15450454	          0.96555649	         -0.39186509	          0.00000000	          0.00000000	          0.00000000	          0.00000000	          0.00000000	          0.00000000	          0.65101883	          0.98317885	         -0.38158286	          0.00000000	          0.00000000	          0.00000000	
8.258	         32.70923643	        362.77304542	         19.56047263	          0.22195773	          0.00000000	          0.17193308	          0.00000000	          0.12650866	          0.00000000	        -36.81560932	        409.17828754	         15.98059360	          0.57849713	          0.00000000	          0.18058400	          0.00000000	          0.16626006	          0.00000000	          0.00000000	          0.00000000	          0.00000000	          0.15449855	          0.96549162	         -0.39188033	          0.00000000	          0.00000000	          0.00000000	          0.00000000	          0.00000000	          0.00000000	          0.65100926	          0.98308309	         -0.38164279	          0.00000000	          0.00000000	          0.00000000	
8.259	         32.70536569	        363.11765236	         19.53922747	          0.22197259	          0.00000000	          0.17191326	          0.00000000	          0.13248745	          0.00000000	        -36.84347804	        409.86697934	         16.05624985	          0.57848103	          0.00000000	          0.18053925	          0.00000000	          0.16096842	          0.00000000	          0.00000000	          0.00000000	          0.00000000	          0.15449025	          0.96542936	         -0.39189322	          0.00000000	          0.00000000	          0.00000000	          0.00000000	          0.00000000	          0.00000000	          0.65100147	          0.98299163	         -0.38170014	          0.00000000	          0.00000000	          0.00000000	
